<svg width="92" height="38" viewBox="0 0 92 38" fill="none" xmlns="http://www.w3.org/2000/svg">
<path d="M5.22391 13.162C4.35991 13.162 3.53191 13.03 2.73991 12.766C1.95991 12.502 1.30591 12.13 0.777914 11.65L1.37191 10.354C1.95991 10.834 2.56591 11.182 3.18991 11.398C3.81391 11.614 4.47391 11.722 5.16991 11.722C6.09391 11.722 6.79591 11.53 7.27591 11.146C7.75591 10.75 7.99591 10.186 7.99591 9.454C7.99591 8.734 7.74991 8.188 7.25791 7.816C6.77791 7.444 6.06991 7.258 5.13391 7.258H3.18991V5.872H5.00791C5.79991 5.872 6.43591 5.668 6.91591 5.26C7.39591 4.852 7.63591 4.294 7.63591 3.586C7.63591 2.938 7.41391 2.446 6.96991 2.11C6.53791 1.762 5.91991 1.588 5.11591 1.588C3.75991 1.588 2.58391 2.062 1.58791 3.01L0.993914 1.732C1.49791 1.228 2.12191 0.837999 2.86591 0.561999C3.60991 0.285999 4.39591 0.147999 5.22391 0.147999C6.48391 0.147999 7.47391 0.435999 8.19391 1.012C8.91391 1.588 9.27391 2.392 9.27391 3.424C9.27391 4.204 9.05191 4.876 8.60791 5.44C8.17591 5.992 7.58191 6.358 6.82591 6.538V6.34C7.71391 6.496 8.40391 6.862 8.89591 7.438C9.38791 8.002 9.63391 8.71 9.63391 9.562C9.63391 10.678 9.23791 11.56 8.44591 12.208C7.66591 12.844 6.59191 13.162 5.22391 13.162ZM11.8769 13V11.758L16.3049 7.114C16.8809 6.526 17.3069 5.962 17.5829 5.422C17.8709 4.882 18.0149 4.324 18.0149 3.748C18.0149 3.04 17.7929 2.506 17.3489 2.146C16.9169 1.774 16.2809 1.588 15.4409 1.588C14.7929 1.588 14.1809 1.708 13.6049 1.948C13.0409 2.176 12.5009 2.53 11.9849 3.01L11.3909 1.732C11.8829 1.252 12.5009 0.868 13.2449 0.579999C14.0009 0.291999 14.7929 0.147999 15.6209 0.147999C16.9169 0.147999 17.9189 0.447999 18.6269 1.048C19.3349 1.636 19.6889 2.482 19.6889 3.586C19.6889 4.39 19.4909 5.158 19.0949 5.89C18.7109 6.61 18.1409 7.354 17.3849 8.122L13.5149 12.046V11.578H20.2109V13H11.8769ZM23.0119 13V11.578H25.9819V1.732H26.8279L23.2819 3.928V2.29L26.4499 0.309999H27.6559V11.578H30.4459V13H23.0119ZM33.1388 15.142L32.4008 14.566C32.7368 14.218 32.9648 13.888 33.0848 13.576C33.2048 13.276 33.2648 12.964 33.2648 12.64L33.6248 13H32.3108V11.002H34.3088V12.388C34.3088 12.904 34.2248 13.378 34.0568 13.81C33.8888 14.254 33.5828 14.698 33.1388 15.142ZM40.364 13.162C39.5 13.162 38.672 13.03 37.88 12.766C37.1 12.502 36.446 12.13 35.918 11.65L36.512 10.354C37.1 10.834 37.706 11.182 38.33 11.398C38.954 11.614 39.614 11.722 40.31 11.722C41.234 11.722 41.936 11.53 42.416 11.146C42.896 10.75 43.136 10.186 43.136 9.454C43.136 8.734 42.89 8.188 42.398 7.816C41.918 7.444 41.21 7.258 40.274 7.258H38.33V5.872H40.148C40.94 5.872 41.576 5.668 42.056 5.26C42.536 4.852 42.776 4.294 42.776 3.586C42.776 2.938 42.554 2.446 42.11 2.11C41.678 1.762 41.06 1.588 40.256 1.588C38.9 1.588 37.724 2.062 36.728 3.01L36.134 1.732C36.638 1.228 37.262 0.837999 38.006 0.561999C38.75 0.285999 39.536 0.147999 40.364 0.147999C41.624 0.147999 42.614 0.435999 43.334 1.012C44.054 1.588 44.414 2.392 44.414 3.424C44.414 4.204 44.192 4.876 43.748 5.44C43.316 5.992 42.722 6.358 41.966 6.538V6.34C42.854 6.496 43.544 6.862 44.036 7.438C44.528 8.002 44.774 8.71 44.774 9.562C44.774 10.678 44.378 11.56 43.586 12.208C42.806 12.844 41.732 13.162 40.364 13.162ZM47.017 13V11.758L51.445 7.114C52.021 6.526 52.447 5.962 52.723 5.422C53.011 4.882 53.155 4.324 53.155 3.748C53.155 3.04 52.933 2.506 52.489 2.146C52.057 1.774 51.421 1.588 50.581 1.588C49.933 1.588 49.321 1.708 48.745 1.948C48.181 2.176 47.641 2.53 47.125 3.01L46.531 1.732C47.023 1.252 47.641 0.868 48.385 0.579999C49.141 0.291999 49.933 0.147999 50.761 0.147999C52.057 0.147999 53.059 0.447999 53.767 1.048C54.475 1.636 54.829 2.482 54.829 3.586C54.829 4.39 54.631 5.158 54.235 5.89C53.851 6.61 53.281 7.354 52.525 8.122L48.655 12.046V11.578H55.351V13H47.017ZM61.71 13V3.946H63.078L66.408 9.868L69.756 3.946H71.106V13H69.666V5.782H70.062L66.822 11.542H66.012L62.772 5.764H63.15V13H61.71ZM73.1172 13.216L72.5412 11.938C72.9612 11.746 73.3092 11.518 73.5852 11.254C73.8732 10.978 74.0952 10.63 74.2512 10.21C74.4192 9.79 74.5392 9.268 74.6112 8.644C74.6832 8.02 74.7192 7.264 74.7192 6.376V3.946H81.3972V13H79.7772V5.224H76.2312V6.412C76.2312 7.804 76.1232 8.956 75.9072 9.868C75.7032 10.768 75.3732 11.482 74.9172 12.01C74.4732 12.538 73.8732 12.94 73.1172 13.216ZM83.8416 13V3.946H85.4616V7.69H90.2496V3.946H91.8696V13H90.2496V8.986H85.4616V13H83.8416ZM35.9777 37.162C34.2377 37.162 32.9417 36.724 32.0897 35.848C31.2497 34.96 30.8297 33.658 30.8297 31.942V24.31H32.5217V31.888C32.5217 33.148 32.7977 34.096 33.3497 34.732C33.9017 35.368 34.7777 35.686 35.9777 35.686C37.1297 35.686 37.9937 35.368 38.5697 34.732C39.1577 34.096 39.4517 33.148 39.4517 31.888V24.31H41.1077V31.942C41.1077 33.658 40.6757 34.96 39.8117 35.848C38.9477 36.724 37.6697 37.162 35.9777 37.162ZM43.0049 37V35.758L50.5469 25.138V25.732H43.0049V24.31H52.1489V25.534L44.5889 36.172V35.578H52.3649V37H43.0049ZM58.2472 37.162C57.2272 37.162 56.3092 37.03 55.4932 36.766C54.6772 36.502 53.9692 36.13 53.3692 35.65L53.9452 34.318C54.3652 34.63 54.7912 34.894 55.2232 35.11C55.6552 35.314 56.1172 35.47 56.6092 35.578C57.1132 35.674 57.6592 35.722 58.2472 35.722C59.2912 35.722 60.0592 35.536 60.5512 35.164C61.0552 34.78 61.3072 34.276 61.3072 33.652C61.3072 33.112 61.1332 32.698 60.7852 32.41C60.4372 32.122 59.8312 31.894 58.9672 31.726L57.0412 31.33C55.8772 31.09 55.0072 30.7 54.4312 30.16C53.8672 29.608 53.5852 28.864 53.5852 27.928C53.5852 27.172 53.7832 26.512 54.1792 25.948C54.5872 25.372 55.1452 24.928 55.8532 24.616C56.5732 24.304 57.4132 24.148 58.3732 24.148C59.2612 24.148 60.0832 24.28 60.8392 24.544C61.5952 24.808 62.2312 25.198 62.7472 25.714L62.1712 26.992C61.6312 26.5 61.0492 26.146 60.4252 25.93C59.8132 25.702 59.1172 25.588 58.3372 25.588C57.3892 25.588 56.6392 25.792 56.0872 26.2C55.5352 26.608 55.2592 27.16 55.2592 27.856C55.2592 28.408 55.4332 28.846 55.7812 29.17C56.1292 29.482 56.7052 29.722 57.5092 29.89L59.4352 30.268C60.6592 30.508 61.5532 30.886 62.1172 31.402C62.6932 31.918 62.9812 32.632 62.9812 33.544C62.9812 34.264 62.7892 34.9 62.4052 35.452C62.0212 35.992 61.4752 36.412 60.7672 36.712C60.0592 37.012 59.2192 37.162 58.2472 37.162Z" fill="black"/>
</svg>
