<svg width="24" height="24" viewBox="0 0 24 24" fill="none" xmlns="http://www.w3.org/2000/svg">
<path fill-rule="evenodd" clip-rule="evenodd" d="M3.5 7.666C3.5 5.136 5.233 3.5 7.916 3.5L16.084 3.5C18.767 3.5 20.5 5.136 20.5 7.666L20.5 16.335C20.5 18.865 18.767 20.5 16.084 20.5L7.916 20.5C5.233 20.5 3.5 18.865 3.5 16.335L3.5 7.666ZM22 16.335L22 7.666C22 4.277 19.622 2 16.084 2L7.916 2C4.378 2 2 4.277 2 7.666L2 16.335C2 19.724 4.378 22 7.916 22L16.084 22C19.622 22 22 19.724 22 16.335Z" fill="#475569"/>
<path fill-rule="evenodd" clip-rule="evenodd" d="M16.8358 12C16.8358 11.586 16.4998 11.25 16.0858 11.25L7.91382 11.25C7.49982 11.25 7.16382 11.586 7.16382 12C7.16382 12.414 7.49982 12.75 7.91382 12.75L16.0858 12.75C16.4998 12.75 16.8358 12.414 16.8358 12Z" fill="#475569"/>
<path fill-rule="evenodd" clip-rule="evenodd" d="M16.837 12.0002C16.837 11.8012 16.758 11.6092 16.616 11.4692L12.852 7.72119C12.558 7.42819 12.083 7.43019 11.791 7.72319C11.5 8.01719 11.498 8.49119 11.793 8.78319L15.024 12.0002L11.793 15.2172C11.498 15.5102 11.5 15.9842 11.791 16.2772C12.083 16.5702 12.558 16.5722 12.852 16.2792L16.616 12.5312C16.758 12.3912 16.837 12.1992 16.837 12.0002Z" fill="#475569"/>
</svg>
