<svg width="20" height="20" viewBox="0 0 20 20" fill="none" xmlns="http://www.w3.org/2000/svg">
<path fill-rule="evenodd" clip-rule="evenodd" d="M10 1.5C5.313 1.5 1.5 5.313 1.5 10C1.5 14.687 5.313 18.5 10 18.5C14.687 18.5 18.5 14.687 18.5 10C18.5 5.313 14.687 1.5 10 1.5ZM10 20C4.486 20 0 15.514 0 10C0 4.486 4.486 0 10 0C15.514 0 20 4.486 20 10C20 15.514 15.514 20 10 20Z" fill="#F2376F"/>
<path fill-rule="evenodd" clip-rule="evenodd" d="M9.99414 11.3731C9.58014 11.3731 9.24414 11.0371 9.24414 10.6231V6.2041C9.24414 5.7901 9.58014 5.4541 9.99414 5.4541C10.4081 5.4541 10.7441 5.7901 10.7441 6.2041V10.6231C10.7441 11.0371 10.4081 11.3731 9.99414 11.3731Z" fill="#F2376F"/>
<path fill-rule="evenodd" clip-rule="evenodd" d="M10.004 14.7959C9.45102 14.7959 8.99902 14.3489 8.99902 13.7959C8.99902 13.2429 9.44202 12.7959 9.99402 12.7959H10.004C10.557 12.7959 11.004 13.2429 11.004 13.7959C11.004 14.3489 10.557 14.7959 10.004 14.7959Z" fill="#F2376F"/>
</svg>
