<svg width="20" height="19" viewBox="0 0 20 19" fill="none" xmlns="http://www.w3.org/2000/svg">
<path fill-rule="evenodd" clip-rule="evenodd" d="M18.751 18.9395H11.498C11.084 18.9395 10.748 18.6035 10.748 18.1895C10.748 17.7755 11.084 17.4395 11.498 17.4395H18.751C19.165 17.4395 19.501 17.7755 19.501 18.1895C19.501 18.6035 19.165 18.9395 18.751 18.9395Z" fill="#6A67F8"/>
<mask id="mask0_2185_2309" style="mask-type:luminance" maskUnits="userSpaceOnUse" x="0" y="0" width="18" height="19">
<path fill-rule="evenodd" clip-rule="evenodd" d="M0.000488281 0H17.1811V18.9395H0.000488281V0Z" fill="white"/>
</mask>
<g mask="url(#mask0_2185_2309)">
<path fill-rule="evenodd" clip-rule="evenodd" d="M11.1108 2.01664L1.69576 13.7916C1.52476 14.0056 1.46176 14.2816 1.52476 14.5466L2.20576 17.4316L5.24476 17.3936C5.53376 17.3906 5.80076 17.2616 5.97776 17.0416C9.19476 13.0166 15.3278 5.34264 15.5018 5.11764C15.6658 4.85164 15.7298 4.47564 15.6438 4.11364C15.5558 3.74264 15.3248 3.42764 14.9918 3.22664C14.9208 3.17764 13.2358 1.86964 13.1838 1.82864C12.5498 1.32064 11.6248 1.40864 11.1108 2.01664ZM1.61376 18.9396C1.26676 18.9396 0.964763 18.7016 0.883763 18.3626L0.0647626 14.8916C-0.104237 14.1726 0.0637626 13.4306 0.524763 12.8546L9.94476 1.07264C9.94876 1.06864 9.95176 1.06364 9.95576 1.05964C10.9888 -0.175357 12.8568 -0.357357 14.1168 0.653643C14.1668 0.692643 15.8398 1.99264 15.8398 1.99264C16.4478 2.35464 16.9228 3.00164 17.1028 3.76764C17.2818 4.52564 17.1518 5.30764 16.7348 5.96864C16.7038 6.01764 16.6768 6.05964 7.14876 17.9796C6.68976 18.5516 6.00176 18.8846 5.26276 18.8936L1.62376 18.9396H1.61376Z" fill="#6A67F8"/>
</g>
<path fill-rule="evenodd" clip-rule="evenodd" d="M14.2234 8.68487C14.0634 8.68487 13.9034 8.63387 13.7664 8.52987L8.31442 4.34187C7.98642 4.08987 7.92442 3.61987 8.17642 3.28987C8.42942 2.96187 8.89942 2.90087 9.22842 3.15287L14.6814 7.33987C15.0094 7.59187 15.0714 8.06287 14.8184 8.39187C14.6714 8.58387 14.4484 8.68487 14.2234 8.68487Z" fill="#6A67F8"/>
</svg>
