<svg width="18" height="18" viewBox="0 0 18 18" fill="none" xmlns="http://www.w3.org/2000/svg">
<path fill-rule="evenodd" clip-rule="evenodd" d="M6.99268 11.6724C10.0668 11.6724 12.6943 12.1382 12.6943 13.999C12.6943 15.8599 10.0843 16.339 6.99268 16.339C3.91768 16.339 1.29102 15.8774 1.29102 14.0157C1.29102 12.154 3.90018 11.6724 6.99268 11.6724Z" stroke="#475569" stroke-width="1.5" stroke-linecap="round" stroke-linejoin="round"/>
<path fill-rule="evenodd" clip-rule="evenodd" d="M6.99289 9.01634C4.97456 9.01634 3.33789 7.38051 3.33789 5.36217C3.33789 3.34384 4.97456 1.70801 6.99289 1.70801C9.01039 1.70801 10.6471 3.34384 10.6471 5.36217C10.6546 7.37301 9.02956 9.00884 7.01872 9.01634H6.99289Z" stroke="#475569" stroke-width="1.5" stroke-linecap="round" stroke-linejoin="round"/>
<path d="M12.7358 8.0679C14.07 7.8804 15.0975 6.7354 15.1 5.34956C15.1 3.98373 14.1042 2.8504 12.7983 2.63623" stroke="#475569" stroke-width="1.5" stroke-linecap="round" stroke-linejoin="round"/>
<path d="M14.4961 11.2769C15.7886 11.4694 16.6911 11.9227 16.6911 12.856C16.6911 13.4985 16.2661 13.9152 15.5794 14.176" stroke="#475569" stroke-width="1.5" stroke-linecap="round" stroke-linejoin="round"/>
</svg>
