<svg width="15" height="17" viewBox="0 0 15 17" fill="none" xmlns="http://www.w3.org/2000/svg">
<path fill-rule="evenodd" clip-rule="evenodd" d="M14.7689 4.78823C14.6689 4.92672 14.4393 5.15005 14.4393 5.15005C13.6267 6.01705 11.6056 7.32291 10.5802 7.74227C10.5802 7.75105 9.97051 7.99974 9.68051 8.00949L9.64191 8.00949C9.19751 8.00949 8.78181 7.7608 8.56901 7.36095C8.48128 7.19611 8.39969 6.79518 8.36032 6.60174C8.34728 6.53768 8.33888 6.49638 8.33642 6.49395C8.24932 5.92245 8.19191 5.0457 8.19191 4.08312C8.19191 3.07276 8.24932 2.15797 8.35621 1.59525C8.35621 1.5855 8.46212 1.07154 8.53041 0.899894C8.63631 0.65218 8.83031 0.4425 9.07181 0.308891C9.26481 0.213316 9.4687 0.166504 9.68051 0.166504C9.90321 0.175281 10.3189 0.318643 10.4832 0.384961C11.567 0.80432 13.6366 2.1765 14.4294 3.01522C14.5178 3.10234 14.6104 3.20149 14.6749 3.27048C14.7093 3.3073 14.7357 3.33552 14.7491 3.34876C14.9134 3.55844 15.0005 3.8159 15.0005 4.09287C15.0005 4.33961 14.9233 4.58733 14.7689 4.78823ZM9.03253 13.6901C8.59604 13.6901 8.24268 13.3419 8.24268 12.9118C8.24268 12.4818 8.59604 12.1336 9.03253 12.1336L12.8481 11.919C13.4044 11.919 13.8548 12.3637 13.8548 12.9118C13.8548 13.4599 13.4044 13.9037 12.8481 13.9037L9.03253 13.6901ZM6.47074 16.0994C6.36385 16.3472 6.17084 16.5568 5.92933 16.6905C5.73632 16.786 5.53243 16.8328 5.31963 16.8328C5.09791 16.8241 4.68122 16.6807 4.51691 16.6134C3.43409 16.195 1.36445 14.8219 0.570644 13.9841C0.484364 13.8985 0.39361 13.8012 0.329399 13.7324L0.329341 13.7323L0.329307 13.7323C0.293384 13.6938 0.265781 13.6642 0.251933 13.6506C0.0876287 13.4399 0.000527767 13.1834 0.000527779 12.9074C0.00052779 12.6588 0.0777306 12.411 0.233127 12.2111C0.332105 12.0726 0.561736 11.8493 0.561736 11.8493C1.37336 10.9813 3.39549 9.67643 4.4209 9.25707C4.4209 9.24731 5.02962 8.9996 5.31963 8.98985L5.35823 8.98985C5.80363 8.98985 6.21934 9.23756 6.43214 9.63839C6.51896 9.80289 6.60077 10.2025 6.64045 10.3964L6.64046 10.3964C6.65371 10.4612 6.66226 10.503 6.66474 10.5054C6.75184 11.0769 6.80925 11.9536 6.80925 12.9162C6.80925 13.9266 6.75184 14.8414 6.64495 15.4041C6.64495 15.4129 6.53904 15.9278 6.47074 16.0994ZM6.7585 4.08768C6.7585 3.65759 6.40516 3.30943 5.96867 3.30943L2.15314 3.09487C1.59689 3.09487 1.14655 3.53959 1.14655 4.08768C1.14655 4.63577 1.59689 5.07951 2.15314 5.07951L5.96867 4.86593C6.40516 4.86593 6.7585 4.51777 6.7585 4.08768Z" fill="#475569"/>
</svg>
