<svg width="24" height="24" viewBox="0 0 24 24" fill="none" xmlns="http://www.w3.org/2000/svg">
<g clip-path="url(#clip0_2168_2533)">
<path d="M15.3333 2H8.66667C6.36917 2 4.5 3.86917 4.5 6.16667V17.8333C4.5 20.1308 6.36917 22 8.66667 22H10.3333C10.7933 22 11.1667 21.6267 11.1667 21.1667V17H12.8333V21.1667C12.8333 21.6267 13.2067 22 13.6667 22H15.3333C17.6308 22 19.5 20.1308 19.5 17.8333V6.16667C19.5 3.86917 17.6308 2 15.3333 2ZM17.8333 17.8333C17.8333 19.2117 16.7117 20.3333 15.3333 20.3333H14.5V17H15.3333C15.7933 17 16.1667 16.6267 16.1667 16.1667C16.1667 15.7067 15.7933 15.3333 15.3333 15.3333H8.66667C8.20667 15.3333 7.83333 15.7067 7.83333 16.1667C7.83333 16.6267 8.20667 17 8.66667 17H9.5V20.3333H8.66667C7.28833 20.3333 6.16667 19.2117 6.16667 17.8333V6.16667C6.16667 4.78833 7.28833 3.66667 8.66667 3.66667H15.3333C16.7117 3.66667 17.8333 4.78833 17.8333 6.16667V17.8333ZM11.1667 12.8333C11.1667 13.2933 10.7933 13.6667 10.3333 13.6667H9.5C9.04 13.6667 8.66667 13.2933 8.66667 12.8333C8.66667 12.3733 9.04 12 9.5 12H10.3333C10.7933 12 11.1667 12.3733 11.1667 12.8333ZM15.3333 12.8333C15.3333 13.2933 14.96 13.6667 14.5 13.6667H13.6667C13.2067 13.6667 12.8333 13.2933 12.8333 12.8333C12.8333 12.3733 13.2067 12 13.6667 12H14.5C14.96 12 15.3333 12.3733 15.3333 12.8333ZM11.1667 6.16667C11.1667 6.62667 10.7933 7 10.3333 7H9.5C9.04 7 8.66667 6.62667 8.66667 6.16667C8.66667 5.70667 9.04 5.33333 9.5 5.33333H10.3333C10.7933 5.33333 11.1667 5.70667 11.1667 6.16667ZM15.3333 6.16667C15.3333 6.62667 14.96 7 14.5 7H13.6667C13.2067 7 12.8333 6.62667 12.8333 6.16667C12.8333 5.70667 13.2067 5.33333 13.6667 5.33333H14.5C14.96 5.33333 15.3333 5.70667 15.3333 6.16667ZM11.1667 9.5C11.1667 9.96 10.7933 10.3333 10.3333 10.3333H9.5C9.04 10.3333 8.66667 9.96 8.66667 9.5C8.66667 9.04 9.04 8.66667 9.5 8.66667H10.3333C10.7933 8.66667 11.1667 9.04 11.1667 9.5ZM15.3333 9.5C15.3333 9.96 14.96 10.3333 14.5 10.3333H13.6667C13.2067 10.3333 12.8333 9.96 12.8333 9.5C12.8333 9.04 13.2067 8.66667 13.6667 8.66667H14.5C14.96 8.66667 15.3333 9.04 15.3333 9.5Z" fill="#475569"/>
</g>
<defs>
<clipPath id="clip0_2168_2533">
<rect width="20" height="20" fill="white" transform="translate(2 2)"/>
</clipPath>
</defs>
</svg>
