<svg width="16" height="18" viewBox="0 0 16 18" fill="none" xmlns="http://www.w3.org/2000/svg">
<path d="M5.61248 16.311V13.7629C5.61248 13.1124 6.14364 12.5851 6.79886 12.5851H9.19401C9.50865 12.5851 9.81041 12.7092 10.0329 12.93C10.2554 13.1509 10.3804 13.4505 10.3804 13.7629V16.311C10.3784 16.5814 10.4852 16.8414 10.6771 17.0333C10.8691 17.2252 11.1302 17.3332 11.4026 17.3332H13.0367C13.7999 17.3351 14.5325 17.0355 15.0728 16.5005C15.6132 15.9655 15.9168 15.239 15.9168 14.4814V7.22222C15.9168 6.61022 15.6436 6.02971 15.1707 5.63706L9.61185 1.22973C8.64488 0.456972 7.25942 0.481922 6.32132 1.28899L0.88934 5.63706C0.394113 6.01813 0.098123 6.60037 0.0834961 7.22222V14.4739C0.0834961 16.053 1.37298 17.3332 2.96364 17.3332H4.5604C5.12618 17.3332 5.58599 16.88 5.59009 16.3184L5.61248 16.311Z" fill="#00B8D7"/>
</svg>
