<svg width="24" height="24" viewBox="0 0 24 24" fill="none" xmlns="http://www.w3.org/2000/svg">
<path d="M18.6583 14.4999H2.83333C2.61232 14.4999 2.40036 14.5877 2.24408 14.744C2.0878 14.9003 2 15.1122 2 15.3332C2 15.5543 2.0878 15.7662 2.24408 15.9225C2.40036 16.0788 2.61232 16.1666 2.83333 16.1666H18.6583C19.1817 16.1675 19.6979 16.0452 20.1652 15.8095C20.6325 15.5739 21.0377 15.2315 21.3481 14.8101C21.6585 14.3887 21.8652 13.9002 21.9517 13.384C22.0382 12.8679 22.0019 12.3386 21.8458 11.8391C21.1089 9.4648 19.6297 7.38958 17.6257 5.9185C15.6216 4.44743 13.1985 3.6581 10.7125 3.66657H2.83333C2.61232 3.66657 2.40036 3.75437 2.24408 3.91065C2.0878 4.06693 2 4.27889 2 4.4999C2 4.72092 2.0878 4.93288 2.24408 5.08916C2.40036 5.24544 2.61232 5.33324 2.83333 5.33324H5.33333V7.83324H2.83333C2.61232 7.83324 2.40036 7.92104 2.24408 8.07732C2.0878 8.2336 2 8.44556 2 8.66657C2 8.88759 2.0878 9.09955 2.24408 9.25583C2.40036 9.41211 2.61232 9.49991 2.83333 9.49991H18.8442C19.4621 10.3653 19.9386 11.3233 20.2558 12.3382C20.3345 12.5867 20.3528 12.8503 20.3094 13.1072C20.2659 13.3641 20.1618 13.607 20.0058 13.8157C19.8514 14.0283 19.6487 14.2011 19.4145 14.3201C19.1802 14.439 18.9211 14.5006 18.6583 14.4999ZM9.5 7.83324H7V5.33324H9.5V7.83324ZM11.1667 7.83324V5.35157C13.4478 5.44689 15.6269 6.32301 17.3392 7.83324H11.1667Z" fill="#475569"/>
<path d="M21.1667 18.6665H2.83333C2.61232 18.6665 2.40036 18.7543 2.24408 18.9106C2.0878 19.0669 2 19.2788 2 19.4998C2 19.7209 2.0878 19.9328 2.24408 20.0891C2.40036 20.2454 2.61232 20.3332 2.83333 20.3332H21.1667C21.3877 20.3332 21.5996 20.2454 21.7559 20.0891C21.9122 19.9328 22 19.7209 22 19.4998C22 19.2788 21.9122 19.0669 21.7559 18.9106C21.5996 18.7543 21.3877 18.6665 21.1667 18.6665Z" fill="#475569"/>
</svg>
