<svg width="24" height="24" viewBox="0 0 24 24" fill="none" xmlns="http://www.w3.org/2000/svg">
<g clip-path="url(#clip0_2168_1662)">
<path d="M21.6117 20.4624C21.4842 20.3816 19.1717 18.9424 15.7492 18.2291C16.0976 16.7282 16.7634 13.0924 15.9826 9.7749C15.8526 9.22407 15.7101 8.6824 15.5551 8.15323C16.9226 8.94907 18.3401 9.30823 19.3376 9.46823C19.4226 9.4824 19.5067 9.48823 19.5909 9.48823C20.0892 9.48823 20.5626 9.25323 20.8667 8.84323C21.2276 8.3574 21.2867 7.71823 21.0226 7.17407C20.5009 6.0999 19.5526 4.59907 17.9984 3.54573C15.5034 1.85657 12.4151 1.97323 11.9826 1.9999C11.5534 1.99157 8.51256 1.9974 6.03256 3.67657C4.51506 4.70407 3.56673 6.1199 3.0384 7.12657C2.75256 7.67073 2.79923 8.31907 3.16006 8.81823C3.51673 9.3124 4.1109 9.55823 4.70673 9.46073C5.4409 9.33907 6.40673 9.1099 7.4109 8.67407C7.4309 9.53323 7.57756 10.3357 7.7409 10.8816C7.8859 11.3649 8.23923 11.7424 8.71173 11.9182C8.89423 11.9866 9.08256 12.0199 9.27006 12.0199C9.5684 12.0199 9.86423 11.9349 10.1259 11.7682C10.7059 11.3982 11.3951 10.7849 11.9967 10.0341C11.9984 10.1357 11.9992 10.2357 11.9992 10.3341C11.9992 13.5374 10.4676 16.8607 9.91256 17.9582C5.59423 18.4666 2.53423 20.3699 2.38673 20.4632C1.99756 20.7091 1.88173 21.2241 2.12756 21.6124C2.2859 21.8632 2.55673 22.0007 2.83256 22.0007C2.98506 22.0007 3.1384 21.9591 3.27673 21.8716C3.31006 21.8507 7.83173 19.5007 11.9984 19.5007C16.8884 19.5007 20.6834 21.8491 20.7209 21.8724C21.1092 22.1166 21.6242 21.9999 21.8701 21.6116C22.1151 21.2224 21.9992 20.7091 21.6101 20.4632L21.6117 20.4624ZM17.0651 4.92573C18.2667 5.7399 19.0326 6.91907 19.4742 7.80073C18.5217 7.6349 17.1817 7.26657 15.9709 6.44657C14.7776 5.63823 13.9317 4.53823 13.4109 3.7074C14.4317 3.81157 15.8584 4.10823 17.0642 4.9249L17.0651 4.92573ZM4.57256 7.7924C5.02173 6.96407 5.78923 5.85407 6.96756 5.05657C8.15256 4.25407 9.53756 3.91323 10.5501 3.7699C10.0267 4.5924 9.1934 5.65823 8.02923 6.44657C6.83506 7.2549 5.51423 7.62407 4.5734 7.7924H4.57256ZM9.31173 10.3091C9.12923 9.6449 9.0059 8.60907 9.1234 7.71573C10.3042 6.8774 11.1751 5.8324 11.7701 4.95323C11.8567 5.47573 11.8934 6.06657 11.8042 6.6599C11.8009 6.6774 11.7984 6.69573 11.7959 6.71407C11.7559 6.96073 11.6942 7.2074 11.6042 7.44907C11.1292 8.73323 9.9809 9.85407 9.3109 10.3099L9.31173 10.3091ZM11.8226 17.8349C12.5634 16.2007 13.6667 13.2757 13.6667 10.3332C13.6667 9.31407 13.5884 8.12657 13.5009 7.2099C13.8309 8.14573 14.1192 9.1324 14.3601 10.1557C15.0751 13.1941 14.4001 16.6766 14.0984 17.9591C13.4267 17.8799 12.7259 17.8332 11.9992 17.8332C11.9401 17.8332 11.8817 17.8332 11.8226 17.8349Z" fill="#475569"/>
</g>
<defs>
<clipPath id="clip0_2168_1662">
<rect width="20" height="20" fill="white" transform="translate(2 2)"/>
</clipPath>
</defs>
</svg>
