<svg width="20" height="20" viewBox="0 0 20 20" fill="none" xmlns="http://www.w3.org/2000/svg">
<path d="M11.5412 3.54199V5.55866" stroke="#475569" stroke-width="1.5" stroke-linecap="round" stroke-linejoin="round"/>
<path d="M11.5412 14.8003V16.487" stroke="#475569" stroke-width="1.5" stroke-linecap="round" stroke-linejoin="round"/>
<path d="M11.5412 11.9374V7.91992" stroke="#475569" stroke-width="1.5" stroke-linecap="round" stroke-linejoin="round"/>
<path fill-rule="evenodd" clip-rule="evenodd" d="M15.5849 16.6668C17.1033 16.6668 18.3332 15.4523 18.3332 13.9528V11.7924C17.3284 11.7924 16.5193 10.9933 16.5193 10.001C16.5193 9.00879 17.3284 8.20882 18.3332 8.20882L18.3323 6.04754C18.3323 4.54804 17.1016 3.3335 15.5841 3.3335H4.4156C2.89808 3.3335 1.66737 4.54804 1.66737 6.04754L1.6665 8.27921C2.67123 8.27921 3.4804 9.00879 3.4804 10.001C3.4804 10.9933 2.67123 11.7924 1.6665 11.7924V13.9528C1.6665 15.4523 2.89634 16.6668 4.41473 16.6668H15.5849Z" stroke="#475569" stroke-width="1.5" stroke-linecap="round" stroke-linejoin="round"/>
</svg>
