<svg width="20" height="20" viewBox="0 0 20 20" fill="none" xmlns="http://www.w3.org/2000/svg">
<g clip-path="url(#clip0_2168_1015)">
<path d="M8.90749 20.0001C8.55196 20 8.20158 19.9152 7.8853 19.7529C7.56902 19.5905 7.29594 19.3552 7.08862 19.0663C6.88131 18.7775 6.74572 18.4435 6.69306 18.0919C6.64041 17.7403 6.67221 17.3812 6.78582 17.0443L8.40249 12.5001H5.13166L4.23166 13.8718C4.00448 14.2189 3.6943 14.5039 3.32922 14.7009C2.96414 14.8979 2.55567 15.0008 2.14082 15.0001C1.79815 15.0001 1.46055 14.9173 1.15668 14.759C0.852812 14.6006 0.591642 14.3712 0.395341 14.0903C0.19904 13.8095 0.0734031 13.4854 0.0290939 13.1456C-0.0152153 12.8058 0.0231116 12.4603 0.140821 12.1385L0.916655 10.0001L0.132488 7.86681C0.0144966 7.54555 -0.0243113 7.20058 0.0193529 6.86113C0.063017 6.52168 0.187866 6.19776 0.383321 5.91681C0.615527 5.62013 0.915867 5.38384 1.25886 5.22797C1.60186 5.0721 1.97738 5.00126 2.35359 5.02147C2.7298 5.04167 3.09558 5.15231 3.41991 5.34401C3.74424 5.53571 4.01755 5.80281 4.21665 6.12265L5.12916 7.50015H8.40249L6.78916 2.96931C6.67366 2.63075 6.64056 2.26954 6.69259 1.91563C6.74462 1.56172 6.88028 1.22531 7.08832 0.934314C7.33615 0.619564 7.65874 0.371782 8.02676 0.213513C8.39478 0.0552441 8.79653 -0.00848742 9.19545 0.0281177C9.59438 0.0647228 9.97783 0.200502 10.3109 0.423102C10.644 0.645701 10.9161 0.948053 11.1025 1.30265L14.65 7.50015H17.4108C18.0135 7.49257 18.5997 7.69707 19.0669 8.0779C19.5341 8.45872 19.8526 8.99164 19.9667 9.58348C20.0273 9.9421 20.0089 10.3096 19.9129 10.6604C19.8168 11.0112 19.6454 11.3368 19.4105 11.6145C19.1756 11.8922 18.883 12.1153 18.553 12.2683C18.2231 12.4213 17.8637 12.5004 17.5 12.5001H14.65L11.0942 18.7118C10.8786 19.1028 10.5619 19.4287 10.1772 19.6554C9.79252 19.882 9.35398 20.0011 8.90749 20.0001ZM4.68165 10.8335H9.58332C9.71635 10.8346 9.8472 10.8674 9.96505 10.9291C10.0829 10.9909 10.1844 11.0798 10.2611 11.1885C10.3378 11.2972 10.3875 11.4225 10.4062 11.5543C10.4248 11.686 10.4118 11.8203 10.3683 11.946L8.35999 17.5901C8.33315 17.6748 8.32672 17.7646 8.3412 17.8522C8.35568 17.9398 8.39067 18.0228 8.44332 18.0943C8.52737 18.1776 8.62994 18.2398 8.74263 18.2759C8.85532 18.3119 8.97495 18.3208 9.09173 18.3018C9.20852 18.2828 9.31914 18.2364 9.41457 18.1664C9.51001 18.0965 9.58753 18.005 9.64082 17.8993L13.4433 11.2501C13.5166 11.1232 13.6221 11.0179 13.7491 10.9447C13.8761 10.8716 14.0201 10.8332 14.1667 10.8335H17.5C17.6218 10.8335 17.7421 10.8069 17.8525 10.7554C17.9629 10.7039 18.0607 10.6289 18.139 10.5355C18.2172 10.4422 18.2741 10.3328 18.3055 10.2151C18.3369 10.0974 18.3421 9.97425 18.3208 9.85431C18.2715 9.65248 18.154 9.47385 17.9882 9.3486C17.8224 9.22335 17.6185 9.15914 17.4108 9.16681H14.1667C14.0201 9.1671 13.8761 9.12874 13.7491 9.05558C13.6221 8.98243 13.5166 8.87707 13.4433 8.75015L9.64749 2.11598C9.59687 2.00687 9.52059 1.91165 9.42516 1.83844C9.32973 1.76522 9.21799 1.71621 9.0995 1.69557C8.98101 1.67493 8.85928 1.68329 8.74472 1.71994C8.63016 1.75658 8.52618 1.82041 8.44166 1.90598C8.38835 1.97978 8.3535 2.06528 8.34001 2.15531C8.32653 2.24535 8.33481 2.3373 8.36415 2.42348L10.3642 8.05431C10.4076 8.1797 10.4206 8.31361 10.4022 8.44501C10.3837 8.57641 10.3344 8.70156 10.2581 8.81017C10.1819 8.91878 10.081 9.00774 9.96367 9.06974C9.84635 9.13175 9.716 9.16501 9.58332 9.16681H4.68165C4.54399 9.16684 4.40846 9.13275 4.28718 9.0676C4.1659 9.00245 4.06265 8.90828 3.98665 8.79348L2.82582 7.04348C2.63582 6.69265 1.96415 6.51265 1.75082 6.86848C1.70725 6.92927 1.67948 6.99994 1.67003 7.07414C1.66057 7.14833 1.66972 7.22371 1.69665 7.29348L2.58999 9.71515C2.65821 9.90074 2.65821 10.1046 2.58999 10.2901L1.70165 12.7151C1.67689 12.7849 1.6692 12.8596 1.67924 12.933C1.68927 13.0063 1.71674 13.0762 1.75934 13.1367C1.80194 13.1973 1.85843 13.2468 1.92408 13.281C1.98972 13.3152 2.06262 13.3332 2.13665 13.3335C2.27505 13.3336 2.41129 13.2992 2.53306 13.2334C2.65483 13.1676 2.75831 13.0726 2.83415 12.9568L3.98082 11.2068C4.05736 11.0912 4.16153 10.9965 4.28391 10.9313C4.40629 10.8661 4.543 10.8325 4.68165 10.8335Z" fill="#475569"/>
</g>
<defs>
<clipPath id="clip0_2168_1015">
<rect width="20" height="20" fill="white"/>
</clipPath>
</defs>
</svg>
