<svg width="20" height="20" viewBox="0 0 20 20" fill="none" xmlns="http://www.w3.org/2000/svg">
<path d="M2.29199 2.70801L4.02533 3.00801L4.82783 12.5688C4.89199 13.3497 5.54449 13.9488 6.32783 13.9463H15.4187C16.1662 13.948 16.8003 13.398 16.9062 12.658L17.697 7.19301C17.7853 6.58217 17.3612 6.01551 16.7512 5.92717C16.6978 5.91967 4.30366 5.91551 4.30366 5.91551" stroke="#475569" stroke-width="1.5" stroke-linecap="round" stroke-linejoin="round"/>
<path d="M11.771 8.99528H14.0818" stroke="#475569" stroke-width="1.5" stroke-linecap="round" stroke-linejoin="round"/>
<path fill-rule="evenodd" clip-rule="evenodd" d="M5.96212 16.835C6.21296 16.835 6.41546 17.0383 6.41546 17.2883C6.41546 17.5391 6.21296 17.7425 5.96212 17.7425C5.71129 17.7425 5.50879 17.5391 5.50879 17.2883C5.50879 17.0383 5.71129 16.835 5.96212 16.835Z" fill="#475569" stroke="#475569" stroke-width="1.5" stroke-linecap="round" stroke-linejoin="round"/>
<path fill-rule="evenodd" clip-rule="evenodd" d="M15.3625 16.835C15.6133 16.835 15.8167 17.0383 15.8167 17.2883C15.8167 17.5391 15.6133 17.7425 15.3625 17.7425C15.1117 17.7425 14.9092 17.5391 14.9092 17.2883C14.9092 17.0383 15.1117 16.835 15.3625 16.835Z" fill="#475569" stroke="#475569" stroke-width="1.5" stroke-linecap="round" stroke-linejoin="round"/>
</svg>
