<svg width="24" height="24" viewBox="0 0 24 24" fill="none" xmlns="http://www.w3.org/2000/svg">
<g clip-path="url(#clip0_2168_940)">
<path d="M10.3333 21.1667C10.3333 21.6275 9.96083 22 9.5 22H6.16667C3.86917 22 2 20.1308 2 17.8333V6.16667C2 3.86917 3.86917 2 6.16667 2H12.8333C15.1308 2 17 3.86917 17 6.16667V7.83333C17 8.29417 16.6275 8.66667 16.1667 8.66667C15.7058 8.66667 15.3333 8.29417 15.3333 7.83333V6.16667C15.3333 4.78833 14.2117 3.66667 12.8333 3.66667H6.16667C4.78833 3.66667 3.66667 4.78833 3.66667 6.16667V17.8333C3.66667 19.2117 4.78833 20.3333 6.16667 20.3333H9.5C9.96083 20.3333 10.3333 20.7058 10.3333 21.1667ZM13.6667 7C13.6667 6.53917 13.2942 6.16667 12.8333 6.16667H6.16667C5.70583 6.16667 5.33333 6.53917 5.33333 7C5.33333 7.46083 5.70583 7.83333 6.16667 7.83333H12.8333C13.2942 7.83333 13.6667 7.46083 13.6667 7ZM10.3333 11.1667C10.3333 10.7058 9.96083 10.3333 9.5 10.3333H6.16667C5.70583 10.3333 5.33333 10.7058 5.33333 11.1667C5.33333 11.6275 5.70583 12 6.16667 12H9.5C9.96083 12 10.3333 11.6275 10.3333 11.1667ZM6.16667 14.5C5.70583 14.5 5.33333 14.8725 5.33333 15.3333C5.33333 15.7942 5.70583 16.1667 6.16667 16.1667H7.83333C8.29417 16.1667 8.66667 15.7942 8.66667 15.3333C8.66667 14.8725 8.29417 14.5 7.83333 14.5H6.16667ZM22 16.1667C22 19.3825 19.3825 22 16.1667 22C12.9508 22 10.3333 19.3825 10.3333 16.1667C10.3333 12.9508 12.9508 10.3333 16.1667 10.3333C19.3825 10.3333 22 12.9508 22 16.1667ZM20.3333 16.1667C20.3333 13.8692 18.4642 12 16.1667 12C13.8692 12 12 13.8692 12 16.1667C12 18.4642 13.8692 20.3333 16.1667 20.3333C18.4642 20.3333 20.3333 18.4642 20.3333 16.1667ZM17.6733 15.1325L15.8208 16.9108C15.7008 17.0283 15.505 17.0308 15.3858 16.9125L14.4433 15.9892C14.1133 15.6658 13.5867 15.6708 13.265 16.0008C12.9425 16.33 12.9475 16.8567 13.2767 17.1792L14.22 18.1033C14.6033 18.4775 15.105 18.665 15.6058 18.665C16.1067 18.665 16.6067 18.4775 16.9833 18.1058L18.8275 16.3358C19.1592 16.0167 19.17 15.4892 18.8517 15.1575C18.5325 14.8242 18.0042 14.815 17.6733 15.1333V15.1325Z" fill="#475569"/>
</g>
<defs>
<clipPath id="clip0_2168_940">
<rect width="20" height="20" fill="white" transform="translate(2 2)"/>
</clipPath>
</defs>
</svg>
