<svg width="24" height="24" viewBox="0 0 24 24" fill="none" xmlns="http://www.w3.org/2000/svg">
<g clip-path="url(#clip0_2168_625)">
<path d="M22 17.8333C22.0019 16.073 21.6534 14.33 20.975 12.7058L20.7075 12.0641C20.3922 11.3039 19.8583 10.6544 19.1735 10.1979C18.4887 9.74145 17.6838 9.49853 16.8608 9.49994H13.8058C12.9828 9.49853 12.1779 9.74145 11.4931 10.1979C10.8083 10.6544 10.2745 11.3039 9.95917 12.0641L9.6925 12.7049C8.9425 14.9066 7.4425 19.0183 10.3333 20.1899V20.3333C10.3333 20.7753 10.5089 21.1992 10.8215 21.5118C11.1341 21.8244 11.558 21.9999 12 21.9999C12.442 21.9999 12.866 21.8244 13.1785 21.5118C13.4911 21.1992 13.6667 20.7753 13.6667 20.3333H17C17 20.7753 17.1756 21.1992 17.4882 21.5118C17.8007 21.8244 18.2246 21.9999 18.6667 21.9999C19.1087 21.9999 19.5326 21.8244 19.8452 21.5118C20.1577 21.1992 20.3333 20.7753 20.3333 20.3333V20.1899C20.8207 20.0176 21.2427 19.6985 21.5411 19.2764C21.8396 18.8544 21.9999 18.3502 22 17.8333ZM11.5 12.7049C11.6892 12.2493 12.0092 11.8599 12.4196 11.5861C12.8301 11.3123 13.3125 11.1663 13.8058 11.1666H16.8608C17.3546 11.1658 17.8376 11.3116 18.2485 11.5854C18.6594 11.8593 18.9798 12.2489 19.1692 12.7049L19.4358 13.3466C19.4808 13.4524 19.5192 13.5591 19.5642 13.6666H11.1033C11.1442 13.5591 11.1867 13.4524 11.2308 13.3458L11.5 12.7049ZM19.5 18.6666H11.1667C9.7025 18.5249 10.525 16.2758 10.6033 15.3333H12V16.1666C12 16.3876 12.0878 16.5996 12.2441 16.7559C12.4004 16.9121 12.6123 16.9999 12.8333 16.9999C13.0543 16.9999 13.2663 16.9121 13.4226 16.7559C13.5789 16.5996 13.6667 16.3876 13.6667 16.1666V15.3333H17V16.1666C17 16.3876 17.0878 16.5996 17.2441 16.7559C17.4004 16.9121 17.6123 16.9999 17.8333 16.9999C18.0543 16.9999 18.2663 16.9121 18.4226 16.7559C18.5789 16.5996 18.6667 16.3876 18.6667 16.1666V15.3333H20.0633C20.1408 16.2741 20.9642 18.5258 19.5 18.6666ZM7.41667 11.1666H5.33333V7.22078C5.33333 7.14661 5.33333 7.07328 5.34083 6.99994H9.5V7.83328C9.5 8.05429 9.5878 8.26625 9.74408 8.42253C9.90036 8.57881 10.1123 8.66661 10.3333 8.66661C10.5543 8.66661 10.7663 8.57881 10.9226 8.42253C11.0789 8.26625 11.1667 8.05429 11.1667 7.83328V6.99994H15.3258C15.33 7.07328 15.3333 7.14661 15.3333 7.22078V7.83328C15.3333 8.05429 15.4211 8.26625 15.5774 8.42253C15.7337 8.57881 15.9457 8.66661 16.1667 8.66661C16.3877 8.66661 16.5996 8.57881 16.7559 8.42253C16.9122 8.26625 17 8.05429 17 7.83328V7.22078C17.0077 6.1351 16.6586 5.07695 16.0064 4.20898C15.3542 3.34102 14.4349 2.71129 13.39 2.41661C11.3899 1.86243 9.27677 1.86243 7.27667 2.41661C6.23172 2.71129 5.31248 3.34102 4.66026 4.20898C4.00805 5.07695 3.65896 6.1351 3.66667 7.22078V9.49994C3.22464 9.49994 2.80072 9.67554 2.48816 9.9881C2.17559 10.3007 2 10.7246 2 11.1666C2 11.6086 2.17559 12.0326 2.48816 12.3451C2.80072 12.6577 3.22464 12.8333 3.66667 12.8333V15.3333C3.6673 15.8502 3.82781 16.3542 4.1262 16.7763C4.42459 17.1984 4.84624 17.5178 5.33333 17.6908V18.6666C5.33333 18.8876 5.42113 19.0996 5.57741 19.2559C5.73369 19.4121 5.94565 19.4999 6.16667 19.4999C6.38768 19.4999 6.59964 19.4121 6.75592 19.2559C6.9122 19.0996 7 18.8876 7 18.6666V16.9999C7 16.7789 6.9122 16.567 6.75592 16.4107C6.59964 16.2544 6.38768 16.1666 6.16667 16.1666C5.94565 16.1666 5.73369 16.0788 5.57741 15.9225C5.42113 15.7663 5.33333 15.5543 5.33333 15.3333V12.8333H7.41667C7.63768 12.8333 7.84964 12.7455 8.00592 12.5892C8.1622 12.4329 8.25 12.221 8.25 11.9999C8.25 11.7789 8.1622 11.567 8.00592 11.4107C7.84964 11.2544 7.63768 11.1666 7.41667 11.1666ZM7.7125 4.02661C9.4271 3.54912 11.2396 3.54912 12.9542 4.02661C13.694 4.23054 14.3355 4.69448 14.7608 5.33328H5.90583C6.33117 4.69448 6.97264 4.23054 7.7125 4.02661Z" fill="#475569"/>
</g>
<defs>
<clipPath id="clip0_2168_625">
<rect width="20" height="20" fill="white" transform="translate(2 2)"/>
</clipPath>
</defs>
</svg>
