<svg width="20" height="20" viewBox="0 0 20 20" fill="none" xmlns="http://www.w3.org/2000/svg">
<path d="M14.9062 9.08044C16.0688 8.91711 16.9638 7.92044 16.9663 6.71294C16.9663 5.52294 16.0988 4.53628 14.9613 4.34961" stroke="#475569" stroke-width="1.5" stroke-linecap="round" stroke-linejoin="round"/>
<path d="M16.4399 11.875C17.5658 12.0433 18.3516 12.4375 18.3516 13.25C18.3516 13.8092 17.9816 14.1725 17.3833 14.4008" stroke="#475569" stroke-width="1.5" stroke-linecap="round" stroke-linejoin="round"/>
<path fill-rule="evenodd" clip-rule="evenodd" d="M9.90529 12.2197C7.22695 12.2197 4.93945 12.6256 4.93945 14.2464C4.93945 15.8664 7.21279 16.2839 9.90529 16.2839C12.5836 16.2839 14.8703 15.8822 14.8703 14.2606C14.8703 12.6389 12.5978 12.2197 9.90529 12.2197Z" stroke="#475569" stroke-width="1.5" stroke-linecap="round" stroke-linejoin="round"/>
<path fill-rule="evenodd" clip-rule="evenodd" d="M9.90518 9.9065C11.6627 9.9065 13.0877 8.48234 13.0877 6.724C13.0877 4.9665 11.6627 3.5415 9.90518 3.5415C8.14768 3.5415 6.72268 4.9665 6.72268 6.724C6.71601 8.47567 8.13018 9.90067 9.88185 9.9065H9.90518Z" stroke="#475569" stroke-width="1.5" stroke-linecap="round" stroke-linejoin="round"/>
<path d="M4.90375 9.08044C3.74042 8.91711 2.84625 7.92044 2.84375 6.71294C2.84375 5.52294 3.71125 4.53628 4.84875 4.34961" stroke="#475569" stroke-width="1.5" stroke-linecap="round" stroke-linejoin="round"/>
<path d="M3.36967 11.875C2.24384 12.0433 1.45801 12.4375 1.45801 13.25C1.45801 13.8092 1.82801 14.1725 2.42634 14.4008" stroke="#475569" stroke-width="1.5" stroke-linecap="round" stroke-linejoin="round"/>
</svg>
