<svg width="151" height="24" viewBox="0 0 151 24" fill="none" xmlns="http://www.w3.org/2000/svg">
<path d="M64.4154 18.7645H63.4017C62.5271 18.7645 61.9419 18.3459 61.6341 17.4871C61.3577 16.7131 61.0812 15.9383 60.8342 15.1546C60.7006 14.7301 60.5043 14.532 60.0426 14.5515C58.8445 14.6022 59.1136 14.4217 58.8952 15.6016C58.7303 16.4936 58.6059 17.3953 58.4925 18.2961C58.4501 18.6357 58.3368 18.7772 58.0013 18.7714C57.0349 18.7545 56.0682 18.7545 55.1011 18.7714C54.7592 18.7762 54.6781 18.6396 54.7279 18.3C55.0311 16.2291 55.3205 14.1562 55.6154 12.0843C55.913 9.99585 56.219 7.90933 56.5001 5.8189C56.5462 5.47635 56.6466 5.34362 56.983 5.34655C58.886 5.36119 60.79 5.31434 62.6912 5.37778C63.4261 5.403 64.1517 5.55939 64.8375 5.84037C66.3839 6.4874 67.0391 8.07133 66.6336 9.84849C66.3364 11.2245 65.5723 12.4369 64.4864 13.2554C64.2035 13.4741 64.138 13.64 64.291 14.0108C64.879 15.4376 65.407 16.8927 65.9803 18.3263C66.124 18.6855 66.007 18.7655 65.7038 18.7645H64.4154ZM60.5568 11.4207C61.7871 11.5017 62.2027 11.0957 62.517 10.5648C63.0662 9.63964 62.5575 8.63444 61.5272 8.59931C61.0987 8.58467 60.6693 8.59931 60.237 8.59931C59.9762 8.59931 59.8481 8.70959 59.8196 8.98968C59.7735 9.44055 59.6952 9.88753 59.6399 10.3384C59.5118 11.4188 59.5136 11.4188 60.5568 11.4207ZM72.4524 5.27531C73.6016 5.27531 74.7951 5.27531 75.9249 5.51929C78.015 5.96919 79.5817 7.59996 79.9116 9.85727C80.5493 14.2177 77.6823 18.2405 73.5325 18.6406C71.6286 18.8231 69.7006 18.7333 67.7838 18.7675C67.4879 18.7723 67.3875 18.6601 67.4363 18.3195C67.8833 15.2044 68.3137 12.0853 68.7496 8.96821C68.8979 7.90738 69.0555 6.8485 69.1901 5.78571C69.2481 5.32703 69.5099 5.32703 69.8785 5.32313C70.4084 5.31727 70.9383 5.2919 71.4673 5.28604C71.7954 5.28019 72.1244 5.27628 72.4524 5.27531ZM72.5059 15.5313C72.9833 15.4288 73.4883 15.3995 73.9325 15.2102C75.5987 14.4978 76.535 12.0804 75.9111 10.233C75.6512 9.46593 75.2006 8.88525 74.4513 8.67152C74.0606 8.56027 73.6274 8.62761 73.2173 8.57393C72.7566 8.51342 72.5667 8.70373 72.5022 9.19364C72.2672 10.9689 72.0055 12.7333 71.7364 14.5007C71.5889 15.4591 71.5696 15.4562 72.5059 15.5313ZM29.0345 18.6962C28.8772 18.7382 28.7157 18.7598 28.5535 18.7606C25.113 18.7639 21.6749 18.7639 18.2393 18.7606C17.6863 18.7606 17.6937 18.7314 17.7527 18.137C17.8937 16.7151 18.4899 15.5664 19.4373 14.5554C21.1238 12.7567 22.7614 10.9074 24.4138 9.07653C24.494 8.98772 24.5548 8.88135 24.6903 8.68616C24.4433 8.66274 24.2885 8.63542 24.1373 8.63444C22.6941 8.63444 21.2519 8.62468 19.8059 8.64127C19.4502 8.64127 19.3544 8.54368 19.4189 8.16014C19.5599 7.36574 19.6603 6.5606 19.7525 5.75448C19.7921 5.41096 19.9368 5.30068 20.264 5.30263C21.9228 5.30914 23.5838 5.31239 25.2469 5.31239H28.9267C29.159 5.31239 29.7442 5.19723 29.9312 5.3973C30.0298 5.5027 30.0003 5.67641 29.9672 5.82085C29.7524 6.75578 29.8151 7.85565 29.1378 8.60907C27.2172 10.7327 25.3179 12.8778 23.4139 15.018C23.354 15.0853 23.307 15.1673 23.1964 15.3254C23.3695 15.3588 23.5443 15.3819 23.7199 15.3947C24.8709 15.3947 26.0238 15.4015 27.173 15.3947C27.7333 15.3947 27.7259 15.8826 27.8761 16.3384C28.0648 16.9014 28.319 17.4374 28.6327 17.934C28.7673 18.1458 29.0364 18.4444 29.0345 18.6962ZM41.155 18.6289L42.9401 14.7252C44.3096 11.7324 45.6765 8.73561 47.0411 5.73497C47.1802 5.42853 47.3434 5.2997 47.6714 5.30556C48.7159 5.32508 49.7603 5.32508 50.8048 5.30556C51.155 5.29873 51.2794 5.43438 51.342 5.79352C51.9687 9.42201 52.6129 13.0476 53.2515 16.6741C53.3501 17.2333 53.4359 17.7945 53.5372 18.3537C53.5907 18.6523 53.493 18.7723 53.2027 18.7694C52.2507 18.7597 51.2978 18.7792 50.3458 18.7499C50.2094 18.7499 50.0039 18.5547 49.9625 18.4074C49.8808 18.0769 49.8347 17.7377 49.8251 17.3963C49.8067 17.0918 49.6869 16.9659 49.3948 16.9679C48.1967 16.9766 46.9987 16.9601 45.8007 16.9845C45.6477 16.9845 45.4394 17.1465 45.3592 17.2948C45.1694 17.6442 45.0625 18.0433 44.8791 18.3986C44.8054 18.5411 44.622 18.7089 44.4856 18.7118C43.4718 18.7343 42.4581 18.7206 41.4444 18.7118C41.3456 18.6945 41.2486 18.6667 41.155 18.6289ZM48.7239 8.90672C48.6416 9.00339 48.5685 9.10831 48.5055 9.21999C47.911 10.7112 47.3231 12.2053 46.7305 13.6966C46.6255 13.961 46.725 14.0606 46.9674 14.0616C47.6558 14.0616 48.3451 14.0557 49.0335 14.0616C49.3542 14.0616 49.4169 13.8966 49.3782 13.596C49.1939 12.1517 49.0225 10.7044 48.8418 9.25903C48.8123 9.13817 48.7728 9.02028 48.7239 8.90672ZM40.0768 14.0264C40.2611 14.4168 40.4528 14.8355 40.6389 15.2551C40.8251 15.6748 40.9873 16.1237 41.2002 16.5365C41.3495 16.8293 41.2518 16.9757 41.0426 17.1455C39.2354 18.6172 37.196 19.1725 34.9409 18.9178C33.7788 18.7841 32.6701 18.4786 31.7329 17.7105C30.052 16.3442 29.5018 14.4568 29.8216 12.3332C30.3367 8.91258 32.155 6.5118 35.2994 5.46464C37.642 4.6839 39.9441 4.86835 41.99 6.53327C42.2664 6.76066 42.3586 6.93243 42.1236 7.28376C41.637 8.01277 41.191 8.77302 40.7551 9.53815C40.5707 9.86996 40.4334 9.9129 40.1275 9.65818C38.7562 8.51928 36.8098 8.34947 35.4625 9.23951C34.2644 10.029 33.7189 11.2363 33.6848 12.6816C33.6525 14.0479 34.7271 15.1663 36.1168 15.3312C37.3692 15.4796 38.4815 15.0873 39.5026 14.3446C39.6418 14.247 39.7791 14.1435 39.922 14.0469C39.9413 14.0342 39.9773 14.0401 40.0768 14.0264Z" fill="#475569"/>
<path d="M14.7196 5.329C15.6255 5.329 16.5314 5.34364 17.4373 5.32217C17.8123 5.31339 17.9257 5.45002 17.8704 5.83746C17.5644 8.00694 17.2695 10.1793 16.9728 12.3498C16.7829 13.7327 16.5839 15.1146 16.4134 16.5004C16.3599 16.9327 16.2199 17.1318 15.7738 17.1055C14.7481 17.0459 13.7132 17.1055 12.6958 16.9815C11.1651 16.8 10.3642 15.8436 10.4389 14.2177C10.5025 12.8309 10.7301 11.4451 10.9052 10.0603C11.0729 8.70668 11.2674 7.35795 11.4388 6.00434C11.5199 5.36706 11.542 5.32998 12.1428 5.329C13.0005 5.3277 13.8594 5.3277 14.7196 5.329Z" fill="#475569"/>
<path d="M11.2469 18.7405H9.58165C8.79924 18.7405 8.01499 18.7493 7.23442 18.7405C6.17369 18.7258 5.46777 17.9841 5.46777 16.8735V7.17088C5.46777 6.05443 6.16909 5.31663 7.22889 5.31663C7.88873 5.31175 8.5495 5.33517 9.2075 5.30687C9.57613 5.29125 9.65262 5.42593 9.59916 5.79483C9.28399 7.9282 8.99001 10.0655 8.6776 12.2008C8.49328 13.4754 8.34122 14.7441 8.73381 16.0069C9.10244 17.1858 9.79085 18.0388 10.893 18.5004C11.0169 18.5702 11.1353 18.6505 11.2469 18.7405Z" fill="#475569"/>
<g clip-path="url(#clip0_2409_3878)">
<path d="M123.687 19.7692H119.82L122.239 4.28076H126.106L123.687 19.7692Z" fill="#475569"/>
<path d="M137.706 4.6594C136.943 4.34602 135.733 4 134.237 4C130.418 4 127.729 6.10895 127.713 9.12412C127.681 11.3487 129.638 12.5843 131.102 13.326C132.598 14.084 133.107 14.5787 133.107 15.2543C133.091 16.2919 131.898 16.7702 130.784 16.7702C129.24 16.7702 128.413 16.5236 127.156 15.9463L126.647 15.6989L126.105 19.1757C127.012 19.6036 128.684 19.9834 130.418 20C134.476 20 137.118 17.9237 137.149 14.7105C137.165 12.9474 136.131 11.5964 133.903 10.4924C132.551 9.78374 131.722 9.30589 131.722 8.58078C131.738 7.9216 132.423 7.24643 133.95 7.24643C135.207 7.21336 136.131 7.52631 136.83 7.83947L137.18 8.00394L137.706 4.6594Z" fill="#475569"/>
<path d="M142.846 14.2822C143.164 13.3924 144.389 9.94865 144.389 9.94865C144.373 9.98172 144.707 9.04244 144.898 8.46582L145.169 9.80039C145.169 9.80039 145.901 13.5078 146.06 14.2822C145.456 14.2822 143.609 14.2822 142.846 14.2822ZM147.619 4.28076H144.628C143.705 4.28076 143.005 4.56064 142.607 5.56584L136.862 19.769H140.92C140.92 19.769 141.588 17.8573 141.732 17.4456C142.177 17.4456 146.124 17.4456 146.697 17.4456C146.808 17.9894 147.158 19.769 147.158 19.769H150.739L147.619 4.28076Z" fill="#475569"/>
<path d="M116.59 4.28076L112.803 14.8424L112.389 12.7004C111.688 10.2288 109.493 7.5434 107.042 6.20816L110.511 19.7528H114.6L120.679 4.28076H116.59Z" fill="#475569"/>
<path d="M109.286 4.28076H103.064L103 4.59371C107.854 5.87901 111.068 8.97718 112.389 12.701L111.036 5.58271C110.813 4.59349 110.129 4.31339 109.286 4.28076Z" fill="#475569"/>
</g>
<defs>
<clipPath id="clip0_2409_3878">
<rect width="48" height="16" fill="white" transform="translate(103 4)"/>
</clipPath>
</defs>
</svg>
