<svg width="113" height="24" viewBox="0 0 113 24" fill="none" xmlns="http://www.w3.org/2000/svg">
<path d="M6.13603 21.1014L7.3644 15.0387H9.36309L8.14167 21.1014H6.13603ZM12.1668 19.1171H13.4368L13.1106 16.8925L12.1668 19.1171ZM9.36309 21.1014L12.3889 15.0387H14.3598L15.6021 21.1014H13.7491L13.6381 20.3805H11.6671L11.3548 21.1014H9.36309ZM17.4412 21.1014L18.1282 16.5424H16.3793L16.6778 15.0112H22.0493L21.7508 16.5424H20.0853L19.4121 21.1014H17.4412ZM24.159 19.1171H25.429L25.1028 16.8925L24.159 19.1171ZM21.3622 21.1014L24.3811 15.0387H26.352L27.5942 21.1014H25.7274L25.6372 20.3805H23.6663L23.354 21.1014H21.3622ZM31.9594 8.18634H22.5559C22.2089 9.88913 21.0152 11.3104 18.6348 12.2923C18.9055 13.1025 19.8285 13.8509 20.7862 13.8509H25.887C26.6643 13.8509 27.2819 13.2054 27.5318 12.6836H22.3477C22.0284 12.6287 22.0146 12.3747 22.3338 12.3472H27.4277C28.087 12.3472 28.6838 11.791 29.0308 11.1868H23.0972C22.7988 11.1388 22.7988 10.8916 23.0972 10.8435H29.0794C29.6832 10.8435 30.2314 10.15 30.4604 9.68315H23.8953C23.5691 9.64195 23.5691 9.33984 23.8953 9.33298H30.5784C31.0989 9.33298 31.6055 8.76996 31.9594 8.18634ZM1.84717 8.18634H11.2507C11.5908 9.88913 12.7914 11.3104 15.1649 12.2923C14.8942 13.1025 13.9712 13.8509 13.0135 13.8509H7.91959C7.14232 13.8509 6.52467 13.2054 6.27483 12.6836H11.4589C11.7712 12.6287 11.7921 12.3747 11.4728 12.3472H6.37199C5.7127 12.3472 5.11587 11.791 4.77581 11.1868H10.7164C11.0148 11.1388 11.0148 10.8916 10.7164 10.8435H4.73417C4.1304 10.8435 3.58215 10.15 3.35313 9.68315H9.91829C10.2445 9.64195 10.2445 9.33984 9.91829 9.33298H3.23515C2.70772 9.33298 2.2011 8.76996 1.84717 8.18634ZM13.8532 3.07798C14.2002 3.37322 14.5888 3.63413 15.0052 3.79891C15.3592 3.11231 15.8519 2.52182 16.421 2C15.4841 2.12359 14.6027 2.47376 13.8532 3.07798ZM12.1876 6.46295H14.2835C14.3321 5.61156 14.5125 4.86316 14.8526 4.09416C14.3876 3.88817 13.9851 3.64099 13.5964 3.31142C12.729 4.16968 12.2501 5.27512 12.1876 6.46295ZM16.7402 4.51985V6.46295H14.6444C14.6582 5.70082 14.8387 4.91809 15.1649 4.21088C15.6645 4.3894 16.2058 4.50612 16.7402 4.51985ZM19.9534 3.07798C19.6133 3.37322 19.2108 3.63413 18.8014 3.79891C18.4266 3.09857 17.9616 2.53555 17.3787 2.00687C18.3225 2.12359 19.2039 2.47376 19.9534 3.07798ZM21.612 6.46295H19.5231C19.4954 5.62529 19.301 4.84256 18.9679 4.09416C19.4121 3.88817 19.8354 3.62726 20.2032 3.31142C21.1054 4.20401 21.5704 5.30259 21.612 6.46295ZM17.0803 4.51985V6.46295H19.1622C19.1622 5.68022 18.9679 4.93182 18.6418 4.21088C18.1421 4.3894 17.6077 4.50612 17.0803 4.51985ZM13.8532 10.1912C14.2002 9.92346 14.6027 9.62822 15.0052 9.48403C15.38 10.1775 15.845 10.7474 16.421 11.2623C15.4841 11.1388 14.5888 10.7886 13.8532 10.1912ZM12.1876 6.79939H14.2835C14.3321 7.65765 14.5125 8.41292 14.8526 9.18879C14.3876 9.39477 13.9851 9.64195 13.5964 9.96466C12.7428 9.11326 12.2501 8.00782 12.1876 6.79939ZM16.7402 8.74936V6.79939H14.6444C14.6582 7.58213 14.8387 8.35799 15.1649 9.05147C15.6645 8.87295 16.2058 8.76309 16.7402 8.74936ZM19.9534 10.1912C19.6272 9.90973 19.2108 9.64882 18.8014 9.48403C18.4266 10.1775 17.9616 10.7474 17.3787 11.2623C18.3225 11.1388 19.2039 10.7886 19.9534 10.1912ZM21.612 6.79939H19.5231C19.4954 7.65765 19.308 8.41979 18.9679 9.18879C19.4121 9.39477 19.8146 9.64195 20.2032 9.96466C21.0638 9.11326 21.5704 7.98036 21.612 6.79939ZM17.0803 8.74936V6.79939H19.1622C19.1622 7.58213 18.9679 8.34426 18.6418 9.05147C18.156 8.87295 17.5938 8.76309 17.0803 8.74936ZM16.7402 2.19912C16.1711 2.65228 15.6645 3.27023 15.3314 3.91564C15.7825 4.06669 16.2614 4.19028 16.7402 4.19028V2.19912ZM17.0803 2.19912C17.6355 2.65228 18.1421 3.24963 18.4752 3.91564C18.0241 4.08042 17.5452 4.19028 17.0803 4.19028V2.19912ZM16.7402 11.0701C16.1711 10.6238 15.6645 10.0059 15.3314 9.34671C15.7825 9.18879 16.2614 9.09953 16.7402 9.09953V11.0701ZM17.0803 11.0838C17.6355 10.6238 18.1421 10.0059 18.4752 9.34671C18.0241 9.20252 17.5452 9.09953 17.0803 9.09953V11.0838Z" fill="#475569"/>
<path fill-rule="evenodd" clip-rule="evenodd" d="M101.478 5.00054H104.893V5.00325H104.906V17.9973H101.887H101.737V17.9914H101.478V12.8427V10.0636V8.36974H94.883V10.0636V12.8427V17.9914H94.7345H94.6148V17.9973H91.4478V5.00325H91.4683V5.00054H94.883V5.00325H101.478V5.00054ZM63.9005 5.00054H67.3175V8.07523V8.3692H64.0485H63.9005V5.00054ZM63.9 13.1713V9.80214H67.3169V12.8774V13.1713H64.049H63.9ZM63.9 14.6417H67.3169V17.7169V18.0104H64.0485H63.9V14.6417ZM62.4104 13.1713H59.1414H58.9929V9.80214H62.4104V12.8774V13.1713ZM58.9923 14.6417H62.4109V17.7169V18.0104H59.1414H58.9923V14.6417ZM54.0952 14.6417H57.5127V17.7169V18.0104H54.2443H54.0952V14.6417ZM72.5166 5H75.9291V8.36649H72.8147V8.36594H72.5166V5ZM71.3185 5.00054H71.6161V8.02913H71.6255V17.9925H68.3593H68.2108V8.36649H68.2052V5.00054H71.1694H71.3185ZM86.1323 5.01193H90.539L85.2783 11.4949L89.9671 17.27H89.9665L90.5406 17.9767H86.2038H86.1323L82.2504 13.1952H80.2831V17.9767H76.8302V5.01193H80.2831L80.2826 9.79346H82.251L86.1323 5.01193Z" fill="#475569"/>
</svg>
