<svg width="46" height="43" viewBox="0 0 46 43" fill="none" xmlns="http://www.w3.org/2000/svg">
<path d="M8.92691 23.235C8.03894 23.8942 7.22291 24.5875 6.44191 25.2808H6.44476C5.52176 26.1126 4.74076 26.8401 4.06578 27.5685C2.39592 22.7803 2.56616 17.5624 4.54474 12.8876C6.52334 8.21285 10.1753 4.40003 14.8199 2.15985C25.399 -2.93518 38.2149 1.29373 43.4679 11.5883C41.795 8.92545 39.4522 6.72489 36.6623 5.19591C33.8723 3.66696 30.7282 2.86044 27.529 2.85312C17.1979 2.85312 8.81994 10.9995 8.81994 21.086C8.81994 21.8144 8.85591 22.5417 8.92691 23.235Z" fill="#00B8D7"/>
<path d="M19.2211 37.4733C21.7942 38.7116 24.6244 39.3549 27.4929 39.3539C30.1811 39.3562 32.8374 38.7868 35.2773 37.6855C37.7173 36.5839 39.8824 34.9769 41.6219 32.9759C40.9044 33.9899 40.084 34.9304 39.173 35.7831C30.724 43.8259 17.2339 43.6523 8.99791 35.4024C9.28563 35.0501 9.5938 34.7144 9.92091 34.3968C10.598 33.7708 11.309 33.1808 12.0509 32.6293L12.0566 32.6256C12.2677 32.4881 12.4785 32.3508 12.6549 32.2133C14.4014 34.4353 16.6481 36.235 19.2211 37.4733Z" fill="#00B8D7"/>
<path d="M11.2728 20.2541C11.2728 12.1087 18.0528 5.48752 26.3957 5.48752L26.393 5.48845C29.2996 5.48334 32.1459 6.29844 34.5894 7.83567C37.0328 9.37289 38.9693 11.5668 40.166 14.1533C37.9899 11.4484 34.9132 9.57232 31.4689 8.85032C23.3068 7.11716 15.2488 12.2122 13.5088 20.1847C12.7898 20.62 12.1035 21.0553 11.4183 21.4898L11.3438 21.5371C11.2837 21.112 11.26 20.683 11.2728 20.2541Z" fill="#00B8D7"/>
<path d="M37.0104 7.95994C35.1088 6.39723 32.86 5.28952 30.4427 4.72494C32.8258 4.96531 35.1299 5.69485 37.2041 6.86571C39.278 8.03657 41.0753 9.62232 42.4778 11.5189C47.9087 18.9369 46.1337 29.2674 38.5367 34.5704C30.9397 39.8734 20.3608 38.1404 14.9288 30.7223L15.1418 30.6189C16.8521 32.3796 18.9598 33.7264 21.297 34.5517C23.6344 35.377 26.1366 35.6584 28.6048 35.373C31.073 35.0878 33.4388 34.2438 35.5142 32.9086C37.5894 31.5734 39.3169 29.7834 40.5592 27.6815C41.8012 25.5793 42.5237 23.2233 42.6688 20.8007C42.8141 18.3779 42.3784 15.9556 41.396 13.7264C40.4136 11.4972 38.9118 9.52264 37.0104 7.95994Z" fill="#00B8D7"/>
<path d="M11.4829 31.8667C13.0347 30.7132 14.6855 29.6927 16.4169 28.8163L15.6748 27.0805C13.875 28.1597 12.1656 29.3765 10.5628 30.7197C9.77703 31.3833 9.04145 32.1015 8.36176 32.8686C7.65437 33.642 7.05729 34.5053 6.58676 35.4346C6.34023 35.9176 6.16099 36.4305 6.05378 36.9599C5.93267 37.5005 5.95614 38.0623 6.12194 38.5913C6.22511 38.8406 6.34368 39.0836 6.47694 39.3188L6.69278 39.6637L6.97678 39.976C7.36168 40.3346 7.80553 40.6273 8.2898 40.8421C8.76006 41.0654 9.26207 41.2179 9.77891 41.2952L10.1689 41.3644L10.559 41.3987C10.8064 41.4287 11.0557 41.4404 11.3049 41.4338C12.3247 41.4571 13.3448 41.4108 14.3579 41.2952C13.3507 41.3303 12.3422 41.2952 11.34 41.1908L10.5949 41.0871L9.88494 40.9486C9.41366 40.8541 8.95978 40.6906 8.53878 40.4632C8.14876 40.221 7.75778 39.9427 7.47378 39.5971L7.26078 39.3199L7.08376 39.0424C6.97927 38.8552 6.89582 38.6574 6.83478 38.4528C6.76899 38.0252 6.79316 37.5889 6.90578 37.1707C7.00848 36.7169 7.18833 36.2833 7.4378 35.8876C7.93941 35.085 8.54738 34.3505 9.24594 33.7035C9.95 33.0445 10.6972 32.4309 11.4829 31.8667Z" fill="#00B8D7"/>
<path d="M8.32294 30.7917C10.4393 29.0966 12.7224 27.6103 15.1389 26.3548L15.1427 26.3529L13.8297 25.0357C11.5174 26.3994 9.3629 28.0034 7.40374 29.8193C6.39593 30.7578 5.45852 31.7657 4.59876 32.8354C3.72155 33.9226 3.0046 35.1241 2.46876 36.4054C2.18181 37.0542 2.01267 37.7471 1.96891 38.4528C1.95717 38.8122 1.98095 39.1718 2.03991 39.5267C2.1439 40.0624 2.37451 40.5671 2.7134 41.0003C3.05229 41.4336 3.49008 41.7836 3.99194 42.0226C4.62296 42.3246 5.29111 42.5461 5.97994 42.6816C7.32607 42.9244 8.69452 43.0288 10.0629 42.9931C11.4119 42.959 12.7959 42.8546 14.1449 42.7158C12.7959 42.786 11.4119 42.786 10.0629 42.7509C8.71086 42.6881 7.36774 42.5025 6.05094 42.1964C5.43083 42.0258 4.83466 41.7812 4.27594 41.468C3.74312 41.1676 3.31152 40.722 3.03391 40.1859C2.91849 39.9188 2.83495 39.6397 2.78494 39.3539C2.74898 39.0546 2.74898 38.7521 2.78494 38.4528C2.87078 37.8396 3.05143 37.2427 3.32076 36.6827C3.86955 35.518 4.59884 34.443 5.48294 33.4954C6.3584 32.5255 7.30776 31.6216 8.32294 30.7917Z" fill="#00B8D7"/>
<path d="M14.2388 22.1495C14.2453 22.2182 14.2749 22.2831 14.3229 22.3338L14.3248 22.332L14.5728 22.6093C12.5848 23.7537 10.7398 24.9664 9.4258 25.8678C5.90894 28.3311 2.9648 31.5543 0.373779 35.4024C2.4678 31.2077 3.49778 29.2323 7.1538 26.0081C11.2008 22.4383 16.4548 19.3528 20.9609 17.7583L22.1679 19.1448C19.9024 19.843 17.7234 20.7848 15.671 21.9529H15.6009L14.6419 21.7793H14.5709C14.5127 21.7836 14.4565 21.8016 14.407 21.832C14.3575 21.8623 14.3163 21.9038 14.2869 21.9529C14.2492 22.0115 14.2323 22.0805 14.2388 22.1495Z" fill="#00B8D7"/>
<path d="M32.9599 17.1344C33.04 17.0935 33.1233 17.0589 33.209 17.0309L33.208 17.029C35.3739 16.162 37.397 16.162 37.7879 17.029C38.179 17.896 36.7229 19.3519 34.5929 20.218C34.2219 20.3658 33.8426 20.493 33.4569 20.5988L31.0107 21.4308L30.8317 22.7849L32.1448 22.4726C32.1592 22.4596 32.176 22.4499 32.1944 22.4438C32.2129 22.4379 32.2324 22.4361 32.2517 22.4383C32.4238 22.4332 32.5916 22.4906 32.7228 22.5993C32.854 22.7081 32.9391 22.8606 32.9618 23.0271V23.0622C32.9979 23.4782 32.6429 23.8591 32.1807 23.8942L30.6549 23.9636L29.8739 29.7177C29.8402 29.925 29.768 30.1246 29.6609 30.3065L28.7727 31.1042L27.7439 22.5077L20.0398 25.0727C19.9532 25.1029 19.8755 25.1534 19.8136 25.2199C19.7517 25.2862 19.7075 25.3666 19.6848 25.4536L19.0458 28.296L18.5848 29.2323L17.4488 25.3499C17.4138 25.3499 17.4138 25.3148 17.3788 25.2808L14.5738 22.0917L15.4968 22.2996L18.6918 23.7555C18.9175 23.8188 19.1595 23.794 19.3668 23.6861L26.109 20.4279L18.7599 14.1191L20.1089 14.1885C20.3298 14.2135 20.5454 14.2718 20.7479 14.3613L26.818 17.4117L28.096 16.2682L28.1319 16.2331C28.213 16.1661 28.3071 16.1155 28.4084 16.0844C28.5099 16.0533 28.6166 16.0423 28.7225 16.052C28.8282 16.0617 28.9309 16.092 29.0248 16.1411C29.1184 16.1901 29.201 16.2569 29.2679 16.3376C29.303 16.3376 29.303 16.3718 29.3389 16.4069C29.516 16.7184 29.446 17.1002 29.1259 17.273L27.955 17.9663L29.588 18.764L32.4629 17.3775C32.6213 17.2827 32.7876 17.2014 32.9599 17.1344Z" fill="#00B8D7"/>
</svg>
