<svg width="64" height="64" viewBox="0 0 64 64" fill="none" xmlns="http://www.w3.org/2000/svg">
<circle cx="32.8889" cy="31.9998" r="31.1111" fill="#F5FBFF"/>
<path fill-rule="evenodd" clip-rule="evenodd" d="M9.8269 51.9585C9.87983 50.6286 10.0807 49.4063 10.4295 48.5494C12.9995 42.4881 17.8826 37.9422 23.7936 35.6692C20.4526 33.1437 18.3966 29.1029 18.3966 24.8095C18.3966 16.9803 24.8216 10.6665 32.7886 10.6665C40.7557 10.6665 47.1807 16.9803 47.1807 25.062C47.1807 29.3554 45.1247 33.3962 41.7837 35.9218C47.6947 38.1948 52.5778 42.7407 55.1478 48.802C55.5667 49.6254 55.8218 50.7593 55.9218 51.9924C49.7779 59.0221 41.8818 62.5776 32.889 62.5776C23.8786 62.5776 16.0001 59.0221 9.8269 51.9585Z" fill="#ADE4FF"/>
</svg>
